<svg t="1689736232938" width="128" height="128"  class="icon" viewBox="0 0 1024 1024" version="1.1" xmlns="http://www.w3.org/2000/svg" p-id="3017" width="128" height="128"><path d="M639.981601 447.98712a191.99448 191.99448 0 1 0 191.99448 191.994481 191.99448 191.99448 0 0 0-191.99448-191.994481z m0 319.990801a127.99632 127.99632 0 1 1 127.99632-127.99632 127.99632 127.99632 0 0 1-127.99632 127.99632z m0-511.985281a383.98896 383.98896 0 0 0-383.988961 383.988961H63.99816V63.99816h575.983441v127.99632h63.99816V0H0v703.979761h261.752475A383.98896 383.98896 0 1 0 639.981601 255.99264z m0 703.979761a319.9908 319.9908 0 1 1 319.9908-319.9908 319.9908 319.9908 0 0 1-319.9908 319.9908z m0-383.988961a63.99816 63.99816 0 1 0 63.99816 63.998161 63.99816 63.99816 0 0 0-63.99816-63.998161z" fill="#e6e6e6" p-id="3018"></path></svg>