<svg t="1695114650446" class="icon" viewBox="0 0 1024 1024" version="1.1" xmlns="http://www.w3.org/2000/svg" p-id="4360" width="164" height="164"><path d="M863 64.16H161a64.19 64.19 0 0 0-64 64v767.68a64.19 64.19 0 0 0 64 64h702a64.19 64.19 0 0 0 64-64V128.16a64.19 64.19 0 0 0-64-64z m0 831.58l-0.11 0.11H161.12l-0.11-0.11V128.27l0.11-0.11h701.76l0.11 0.11z" fill="#bfbfbf" p-id="4361"></path><path d="M319.06 288.24h383.27a32 32 0 0 0 0-64H319.06a32 32 0 1 0 0 64zM319.06 416.08h383.27a32 32 0 1 0 0-64H319.06a32 32 0 0 0 0 64zM447.09 481.29h-128a32 32 0 0 0 0 64h128a32 32 0 0 0 0-64zM784.18 624.83l-79.63-11.57-35.61-72.16a25 25 0 0 0-44.84 0l-35.61 72.16-79.63 11.57A25 25 0 0 0 495 667.47l57.62 56.17-13.62 79.3a25 25 0 0 0 36.3 26.36l71.22-37.44 71.22 37.44A25 25 0 0 0 754 802.94l-13.6-79.31 57.6-56.16a25 25 0 0 0-13.86-42.64zM696.1 697a25 25 0 0 0-7.19 22.13l7.26 42.33-38-20a25 25 0 0 0-23.27 0l-38 20 7.26-42.33a25 25 0 0 0-7.22-22.13l-30.76-30 42.51-6.18a25 25 0 0 0 18.82-13.68l19-38.52 19 38.52a25 25 0 0 0 18.82 13.68l42.53 6.18z" fill="#bfbfbf" p-id="4362"></path></svg>