<svg t="1702449251842" class="icon" viewBox="0 0 1024 1024" version="1.1" xmlns="http://www.w3.org/2000/svg" p-id="4398" width="64" height="64"><path d="M511.999 64c-123.327 0-228.832 43.83-316.512 131.487C107.807 283.147 63.977 388.649 64 511.999c0.022 123.35 43.85 228.849 131.487 316.509s193.142 131.49 316.512 131.49 228.874-43.83 316.509-131.49c87.64-87.66 131.47-193.159 131.49-316.509 0.02-123.35-43.81-228.852-131.49-316.512C740.828 107.83 635.328 64 511.999 64zM511.999 895.998c-106.005 0-196.502-37.505-271.487-112.51C165.525 708.478 128.022 617.983 128 511.999s37.482-196.479 112.512-271.487S406.036 128 511.999 128c105.96 0 196.46 37.505 271.489 112.512s112.53 165.502 112.51 271.487c-0.02 105.985-37.525 196.48-112.51 271.489C708.498 858.493 618.003 895.998 511.999 895.998zM640.988 511.999c8.66 0 16.16-3.167 22.5-9.505 6.335-6.335 9.5-13.832 9.5-22.495s-3.165-16.16-9.5-22.495c-6.34-6.337-13.84-9.505-22.5-9.505l-96.99 0 0-15.007 119.01-124c5.99-6.677 8.83-14.347 8.51-23.007-0.32-8.662-3.49-16-9.505-22.017-3.325-3.328-6.995-5.663-11.005-7.007-4.01-1.345-8.01-2.015-12-2.015s-7.99 0.83-12 2.495c-4.01 1.665-7.35 4.16-10.02 7.487L514.974 371.934l-107.007-108c-6.677-5.995-14.345-8.99-23.007-8.99s-16.33 2.995-23.007 8.99c-2.667 3.33-4.832 6.997-6.497 11.01-1.663 4.01-2.665 8.01-3.008 12-0.34 3.988 0.33 7.987 2.018 12 1.685 4.01 4.18 7.68 7.487 11.007l118.015 118.015 0 20-95.007 0c-8.662 0-16.16 3.168-22.495 9.505-6.337 6.335-9.505 13.835-9.505 22.495 0 8.662 3.167 16.16 9.505 22.497 6.335 6.335 13.832 9.502 22.495 9.502l95.007 0 0 64.002-95.007 0c-8.662 0-16.16 3.165-22.495 9.5-6.337 6.34-9.505 13.84-9.505 22.5s3.167 16.16 9.505 22.495c6.335 6.335 13.832 9.505 22.495 9.505l95.007 0 0 95.005c0 8.665 3.168 16.16 9.505 22.495 6.335 6.34 13.835 9.505 22.495 9.505 8.663 0 16.162-3.165 22.497-9.505 6.335-6.335 9.505-13.83 9.505-22.495l0-95.005 96.99 0c8.66 0 16.16-3.17 22.495-9.505 6.335-6.335 9.505-13.835 9.505-22.495s-3.17-16.16-9.505-22.5c-6.335-6.335-13.835-9.5-22.495-9.5l-96.99 0 0-64.002 96.99 0L640.988 511.999z" fill="#bfbfbf" p-id="4399"></path></svg>