<svg t="1689736837699"  viewBox="0 0 1024 1024" version="1.1" xmlns="http://www.w3.org/2000/svg" p-id="5471" width="200" height="200"><path d="M687.3 850.6H236.8c-31 0-56.2-23.4-56.2-52.1v-563c0-28.7 25.2-52.1 56.2-52.1h450.5c31 0 56.2 23.4 56.2 52.1V320c0 11.5-9.3 20.8-20.8 20.8s-20.8-9.3-20.8-20.8v-84.4c0-5.6-6.8-10.4-14.5-10.4H236.8c-7.7 0-14.5 4.9-14.5 10.4v562.9c0 5.6 6.8 10.4 14.5 10.4h450.5c7.7 0 14.5-4.9 14.5-10.4v-33.2c0-11.5 9.3-20.8 20.8-20.8s20.8 9.3 20.8 20.8v33.2c0.1 28.7-25.1 52.1-56.1 52.1z" fill="#e6e6e6" p-id="5472"></path><path d="M606.4 392H293.6c-11.5 0-20.8-9.5-20.8-21s9.3-21 20.8-21h312.7c11.5 0 20.8 9.5 20.8 21s-9.2 21-20.7 21zM543.8 538H293.6c-11.5 0-20.8-9.5-20.8-21s9.3-21 20.8-21h250.2c11.5 0 20.8 9.5 20.8 21s-9.3 21-20.8 21zM543.8 684H293.6c-11.5 0-20.8-9.5-20.8-21s9.3-21 20.8-21h250.2c11.5 0 20.8 9.5 20.8 21s-9.3 21-20.8 21z" fill="#e6e6e6" p-id="5473"></path><path d="M613.8 736.7c-3.5 0-7.1-0.9-10.4-2.8-10-5.8-13.4-18.5-7.6-28.5L774 396.8c5.8-10 18.5-13.4 28.5-7.6 10 5.8 13.4 18.5 7.6 28.5L631.9 726.3c-3.9 6.7-10.9 10.4-18.1 10.4z" fill="#e6e6e6" p-id="5474"></path></svg>