<svg t="1703486572052" class="icon" viewBox="0 0 1024 1024" version="1.1" xmlns="http://www.w3.org/2000/svg" p-id="5417" width="64" height="64"><path d="M267.459072 24.576H912.06144v1.07264c1.23392 0.749568 0.95744 1.705472 1.60768 2.144768h1.60768v0.536064c0.98304 0.786944 1.21856 0.648704 1.60768 2.144768h1.6128c0.34304 1.468416 0.70144 1.220608 1.07008 2.680832 2.03776 0.46592 2.18112 1.238528 2.14528 3.753472 0.60928 0.610816 0.21504 0 0.5376 1.07264h1.60768c1.024 5.765632 0.5376 13.729792 0.5376 20.3776v492.25216h58.45504c0.17408 0.35328 0.35328 0.71168 0.53248 1.07008 1.36192 1.16224 2.2528 1.52576 4.82816 1.60768v1.0752c0.54272 0.28672 0.91648 0.98304 1.07008 1.07008h1.6128v0.5376c1.67936 1.35168 0.49664 1.74592 3.21536 2.14528 0.71168 3.2256 2.44736 2.11968 3.22048 5.36064h1.07008v424.68864h-1.07008c-0.63488 2.31424-1.67936 1.83296-2.68288 3.21536v1.0752l-1.0752 1.07008c-0.53248 0.1792-1.07008 0.3584-1.60768 0.5376v1.07008c-0.3584 0.1792-0.7168 0.3584-1.07008 0.5376v0.5376h-1.6128v0.53248c-1.152 0.92672-1.3312 0.72704-1.60768 2.68288H36.325376v-1.60768l-1.608704-1.0752v-0.53248h-1.608704v-0.5376l-1.07264-0.5376v-1.07008l-1.608704-0.5376-1.07264-1.07008v-1.0752c-0.98816-1.3568-2.109952-1.03936-2.681344-3.21536H25.6V563.47648h1.07264c0.713216-3.2256 2.446336-2.11968 3.21792-5.36064 2.7136-0.40448 1.536-0.7936 3.217408-2.14528v-0.5376h1.608704q0.804352-1.06752 1.608704-2.14528 1.608704-0.2688 3.217408-0.53248 0.804352-1.0752 1.608704-2.14528h61.1328c-1.357824-29.29152-0.536064-60.972032-0.536064-91.159552v-252.55936c0-4.823552-0.22016-10.0352 1.07264-13.405696h1.608704v-3.217408c1.141248-0.649728 1.16736-1.207808 2.681344-1.608704 0.731648-3.296768 2.414592-2.03008 3.21792-4.8256 2.209792-0.27392 2.36032-1.163264 3.753472-2.14528v-0.536064h2.681856c0.037888-0.0128-0.05888-0.315904 1.072128-0.536064q0.267776-0.804864 0.536576-1.608704c17.038336-0.7936 36.245504-0.536576 54.163456-0.536576h82.5856l0.536064-1.608192c-1.249792-1.438208-0.536064-6.652416-0.536064-9.11616V76.589568c0-12.701184-0.566784-26.796032 0.536064-38.607872h1.609216v-0.536576h0.536064V34.7648c0.16128-0.3584 0.697344-0.026624 1.07264-1.608704 1.6512-0.42496 1.810432-1.010176 2.14528-2.680832h1.608704l1.07264-2.144768h1.072128v-0.537088c1.7152-1.058816 2.349568-0.691712 2.684416-3.217408z m29.495296 40.216576v485.817344h65.425408c1.475072 4.04992 0.536064 13.03552 0.536064 18.2272v174.27456h0.536576v2.14528c0.3584 0.1792 0.7168 0.3584 1.07264 0.53248v1.0752h0.536064v4.82816h0.536064c0.73728 1.09568 1.253376 1.64864 1.609216 3.21536h1.072128c0.178688 0.5376 0.3584 1.07008 0.536576 1.60768 0.89344 0.7168 1.787392 1.42848 2.681344 2.14528 0.178688 0.3584 0.3584 0.7168 0.536064 1.07008h1.608704q0.804864 1.0752 1.609216 2.14528h2.144768v0.5376h2.681344v0.5376h1.0752c0.178688 0.3584 0.3584 0.7168 0.536576 1.07008h1.608704v0.5376h257.409536v-0.5376h1.60768c0.1792-0.35328 0.3584-0.71168 0.5376-1.07008h1.07008v-0.5376h2.68288v-0.5376h2.14528c0.5376-0.71168 1.07008-1.42848 1.60768-2.14528h1.60768c0.1792-0.35328 0.3584-0.71168 0.5376-1.07008l2.68288-2.14528c0.1792-0.5376 0.3584-1.07008 0.5376-1.60768h1.07008c0.34816-1.56672 0.87552-2.11968 1.60768-3.21536h0.5376v-4.82816h0.5376v-1.0752c0.3584-0.17408 0.71168-0.35328 1.07008-0.53248v-1.60768h0.5376v-192.50688c4.11648-1.49504 15.43168-0.53248 20.9152-0.53248h200.56576l0.5376-1.6128c-1.13664-1.3056-0.5376-5.76512-0.5376-8.04352V80.879104c0-5.143552-0.23552-11.249664 0.5376-15.550464-4.08064-1.4848-11.55584-0.536064-16.62464-0.536064H296.954368zM413.861888 193.4848H760.832c0.5376 0.7168 1.07008 1.430016 1.60768 2.144768h2.14528c0.5376 0.7168 1.07008 1.430016 1.60768 2.144768 0.5376 0.178688 1.0752 0.3584 1.60768 0.536576l0.5376 1.608704c0.5376 0.178688 1.0752 0.3584 1.60768 0.536064 0.74752 0.587264 1.8944 3.623424 2.14528 4.826112l1.6128 0.536064v16.622592q-1.0752 0.804864-2.14528 1.608704l-1.0752 3.753472h-1.60768q-0.8064 1.340928-1.60768 2.681344l-1.6128 0.536064c-0.17408 0.536576-0.35328 1.0752-0.53248 1.608704h-2.14528v0.536064h-1.0752c-0.3584 0.536064-0.71168 1.072128-1.07008 1.608192h-1.60768v0.536576H415.470592c-2.589184-0.854528-2.0992-2.448384-5.898752-2.681344v-1.071104l-1.608704-1.07264v-0.536064h-1.0752l-1.07264-2.14528h-1.608704q-0.804864-2.412544-1.608704-4.8256l-1.609216-0.536576v-16.086528q1.0752-0.804352 2.14528-1.608704l0.536064-3.216896 2.681344-1.608704 0.536576-1.608704h1.608704l1.608704-2.681344c2.092032-1.147904 2.737152 1.118208 3.756544-2.14528zM143.58016 220.832768v329.7792h111.544832l0.536064-1.6128c-0.908288-1.04448-0.53504-3.9936-0.536064-5.89824V253.005824c0-10.601472-0.3584-22.445568 0.536064-32.173056H143.58016z m625.29536 77.215232h1.60768v0.536576h0.5376v2.144768c0.3584 0.178688 0.7168 0.3584 1.07008 0.536064v1.0752l1.6128 1.072128v16.623104h-1.0752c-0.6912 1.55136-1.43872 3.04896-2.14528 4.826112h-1.60768c-0.1792 0.782848-0.59392 2.343936-1.0752 2.680832h-1.60768c-0.3584 0.7168-0.71168 1.430016-1.07008 2.144768h-1.6128v0.536576h-1.07008v0.536064h-1.07008l-1.0752 1.608704H414.398464q-0.2688-0.536064-0.536576-1.0752c-1.142272-0.966144-2.341888-1.403392-4.290048-1.608704-0.395776-1.724928-0.728064-1.952256-2.681344-2.144768-0.248832-1.28-0.621056-1.686016-1.07264-2.680832h-1.608704l-1.608704-4.826112-1.609216-0.536064V303.4112l1.609216-0.536064 1.608704-4.826112h1.608704v-0.536064c0.730112-0.625152 0.8192-0.978432 1.07264-2.144768h1.608704c0.506368-0.966144 0.7424-0.844288 1.0752-2.144768 1.9456-0.198656 3.150848-0.645632 4.290048-1.608704q0.268288-0.536064 0.536576-1.0752h345.893376l1.0752 1.608704h1.07008v0.536064h1.07008v0.538112h1.6128c0.1792 0.536064 0.3584 1.072128 0.53248 1.608704q1.344 0.536064 2.68288 1.072128v1.07264c0.60928 0.610816 0.21504 0.002048 0.5376 1.072128z m-178.04288 94.374912l2.14528 0.536064v1.07264q1.33632 0.804352 2.68288 1.608704v1.072128h0.53248c1.00352 2.058752-0.50176 2.420224 2.14528 3.217408 0.05632 4.475392 1.18784 9.29024 0 13.405696v3.753472c-0.3584 0.178688-0.71168 0.3584-1.07008 0.536064a8.024064 8.024064 0 0 0-1.60768 4.290048l-2.14528 0.536064-0.5376 2.144768c-2.3296 0.327168-1.92 1.024-3.22048 2.14528v0.536064h-2.14528v0.536064h-1.07008c-0.3584 0.536064-0.7168 1.0752-1.07008 1.608704H413.861888v-1.0752l-1.608704-0.536064v-0.536064h-2.14528l-1.608704-2.681344h-1.608704l-1.07264-2.144768h-1.0752l-0.536064-1.072128h-0.536576v-2.14528l-1.072128-0.536064v-1.0752l-1.609216-1.072128v-16.081408l1.609216-0.536576 1.608704-4.8256h1.608704v-0.536576c0.677376-0.525824 1.037824-1.711104 1.608704-2.144768h1.0752V391.8848c0.790016-0.735744 0.7168-0.267776 1.0752-1.608704 3.966976-0.231424 3.112448-1.8304 5.362688-2.681344H584.3968v0.536576h1.0752c0.17408 0.3584 0.35328 0.7168 0.53248 1.072128q2.1504 0.804352 4.29056 1.608704zM65.820672 592.4352v366.7712H958.17728V592.4352h-255.26272c0.86016 35.76832 0.53248 73.79968 0.5376 110.45888v48.79872h-0.5376v5.89824c-0.5376 0.17408-1.0752 0.35328-1.60768 0.53248l-0.5376 6.43584c-0.5376 0.3584-1.0752 0.7168-1.60768 1.0752v1.07008l-1.0752 0.5376v3.21536c-0.7168 0.5376-1.42848 1.0752-2.14528 1.60768l-0.5376 2.68288c-0.53248 0.3584-1.07008 0.7168-1.60768 1.07008-0.3584 1.2544-0.71168 2.50368-1.07008 3.75808h-1.6128c-0.29696 1.67936-0.52224 2.24256-2.14528 2.67776-0.36864 1.38752-0.83968 1.75104-1.60768 2.68288h-0.53248v1.07008l-1.0752 0.5376-2.14528 2.68288c-1.37216 1.25952-1.40288-0.29184-2.14528 2.14528-0.9728 0.18944-2.14528 0.45056-2.68288 1.07008-0.17408 0.5376-0.35328 1.0752-0.53248 1.60768h-1.6128c-0.71168 0.896-1.42848 1.78688-2.14528 2.68288-1.84832 1.09056-2.37056-0.8192-3.21536 2.14528-2.26304 0.12288-3.06176 0.55296-4.29056 1.60768-0.1792 0.3584-0.3584 0.7168-0.5376 1.07008h-3.21536v0.5376h-1.0752c-0.35328 0.5376-0.71168 1.0752-1.07008 1.60768l-5.89824 0.5376v0.5376h-1.0752c-0.35328 0.5376-0.71168 1.07008-1.07008 1.60768H370.959872c-0.3584-0.5376-0.7168-1.07008-1.072128-1.60768h-1.0752v-0.5376l-5.899264-0.5376c-0.3584-0.53248-0.7168-1.07008-1.0752-1.60768h-1.072128v-0.5376h-3.21792c-0.178688-0.35328-0.3584-0.71168-0.536064-1.07008-1.240064-1.06496-2.021376-1.46432-4.290048-1.60768v-1.0752c-0.536576-0.1792-1.07264-0.35328-1.609216-0.53248v-0.5376h-1.608704v-0.5376c-1.3568-1.01888-1.575424-1.83808-3.753984-2.14528-0.434688-1.82272-1.368576-2.31424-3.217408-2.67776v-1.0752c-2.702336-1.24416-3.707392-3.072-5.362688-5.36064q-1.876992-1.6128-3.753984-3.22048v-1.60768h-0.536576v-0.53248h-1.608704c-0.178688-1.0752-0.3584-2.14528-0.536064-3.22048-0.7168-0.5376-1.430016-1.07008-2.14528-1.60768-0.178688-0.896-0.3584-1.78688-0.536064-2.68288q-1.0752-0.79872-2.14528-1.60768v-3.21536l-1.0752-0.5376v-1.07008l-1.608704-1.0752v-4.82816h-0.536064c-0.439296-0.77824-0.370176-0.91136-0.536576-2.14016h-1.0752v-6.43584h-0.536064v-48.79872c0-36.47488-0.34816-74.33216 0.536064-109.92128H65.820672z" p-id="5418" fill="#bfbfbf"></path></svg>